<mxfile host="app.diagrams.net" modified="2021-04-18T11:17:47.416Z" agent="5.0 (Macintosh; Intel Mac OS X 10_15_7) AppleWebKit/537.36 (KHTML, like Gecko) Chrome/90.0.4430.72 Safari/537.36" etag="HPKHhv_Tk56xVn-aRYv9" version="14.6.0" type="github" pages="2">
  <diagram id="uibxnbUxGGH9FFbO3F11" name="Page-1">
    <mxGraphModel dx="1188" dy="1232" grid="1" gridSize="10" guides="1" tooltips="1" connect="1" arrows="1" fold="1" page="1" pageScale="1" pageWidth="827" pageHeight="1169" math="0" shadow="0">
      <root>
        <mxCell id="0" />
        <mxCell id="1" parent="0" />
      </root>
    </mxGraphModel>
  </diagram>
  <diagram id="OrFfx_qUfjJyYX6_IebD" name="Page-2">
    <mxGraphModel dx="1188" dy="1232" grid="1" gridSize="10" guides="1" tooltips="1" connect="1" arrows="1" fold="1" page="1" pageScale="1" pageWidth="827" pageHeight="1169" math="0" shadow="0">
      <root>
        <mxCell id="I5_1d228LnPcKCDw3eDl-0" />
        <mxCell id="I5_1d228LnPcKCDw3eDl-1" parent="I5_1d228LnPcKCDw3eDl-0" />
      </root>
    </mxGraphModel>
  </diagram>
</mxfile>
